HIERARCHY
ROOT root
{
	OFFSET	0	13.1	24.9
	CHANNELS 6  Xposition Yposition Zposition Xrotation Yrotation Zrotation
	JOINT spine_1
	{
		OFFSET	0	9.99999	0
		CHANNELS 3  Xrotation Yrotation Zrotation
		JOINT spine_2
		{
			OFFSET	0	112	-10
			CHANNELS 3  Xrotation Yrotation Zrotation
			JOINT spine_3
			{
				OFFSET	0	206.5	19.3
				CHANNELS 3  Xrotation Yrotation Zrotation
				JOINT spine_4
				{
					OFFSET	0	110.4	14.6
					CHANNELS 3  Xrotation Yrotation Zrotation
					JOINT neck_1
					{
						OFFSET	0	71.8	-50.3
						CHANNELS 3  Xrotation Yrotation Zrotation
						JOINT neck_2
						{
							OFFSET	0	86.2	-25.8
							CHANNELS 3  Xrotation Yrotation Zrotation
							JOINT head_ee
							{
								OFFSET	0	179.8	-8.7
								CHANNELS 3  Xrotation Yrotation Zrotation
								End Site
								{
									OFFSET	1	0	0
								}
							}
						}
					}
					JOINT left_clavicle
					{
						OFFSET	-43.2	22.4	-70.8
						CHANNELS 3  Xrotation Yrotation Zrotation
						JOINT left_shoulder
						{
							OFFSET	-93.9	-5.79999	48.7
							CHANNELS 3  Xrotation Yrotation Zrotation
							JOINT left_elbow
							{
								OFFSET	-291.4	-30.8	15.2
								CHANNELS 3  Xrotation Yrotation Zrotation
								JOINT left_lowarm_twist
								{
									OFFSET	-110.7	-3.89999	13.6
									CHANNELS 3  Xrotation Yrotation Zrotation
									JOINT left_hand
									{
										OFFSET	-110.7	-3.89999	13.6
										CHANNELS 3  Xrotation Yrotation Zrotation
										JOINT left_ee
										{
											OFFSET	-80.8	-5.10001	12.1
											CHANNELS 3  Xrotation Yrotation Zrotation
											End Site
											{
												OFFSET	1	0	0
											}
										}
									}
								}
							}
						}
					}
					JOINT right_clavicle
					{
						OFFSET	43.2	22.4	-70.8
						CHANNELS 3  Xrotation Yrotation Zrotation
						JOINT right_shoulder
						{
							OFFSET	93.9	-5.79999	48.7
							CHANNELS 3  Xrotation Yrotation Zrotation
							JOINT right_elbow
							{
								OFFSET	291.4	-30.8	15.2
								CHANNELS 3  Xrotation Yrotation Zrotation
								JOINT right_lowarm_twist
								{
									OFFSET	110.7	-3.89999	13.6
									CHANNELS 3  Xrotation Yrotation Zrotation
									JOINT right_hand
									{
										OFFSET	110.7	-3.89999	13.6
										CHANNELS 3  Xrotation Yrotation Zrotation
										JOINT right_ee
										{
											OFFSET	80.8	-5.10001	12.1
											CHANNELS 3  Xrotation Yrotation Zrotation
											End Site
											{
												OFFSET	1	0	0
											}
										}
									}
								}
							}
						}
					}
				}
			}
		}
	}
	JOINT left_hip
	{
		OFFSET	-82.8	-127.5	0.300001
		CHANNELS 3  Xrotation Yrotation Zrotation
		JOINT left_knee
		{
			OFFSET	-28.2	-396.7	2.2
			CHANNELS 3  Xrotation Yrotation Zrotation
			JOINT left_ankle
			{
				OFFSET	-11.7	-411.3	35.4
				CHANNELS 3  Xrotation Yrotation Zrotation
				JOINT left_toes
				{
					OFFSET	0	-60	-88.6
					CHANNELS 3  Xrotation Yrotation Zrotation
					JOINT left_foot_ee
					{
						OFFSET	-22.5	-16.5	-42.2
						CHANNELS 3  Xrotation Yrotation Zrotation
						End Site
						{
							OFFSET	1	0	0
						}
					}
				}
			}
		}
	}
	JOINT right_hip
	{
		OFFSET	82.8	-127.5	0.300001
		CHANNELS 3  Xrotation Yrotation Zrotation
		JOINT right_knee
		{
			OFFSET	28.2	-396.7	2.2
			CHANNELS 3  Xrotation Yrotation Zrotation
			JOINT right_ankle
			{
				OFFSET	11.7	-411.3	35.4
				CHANNELS 3  Xrotation Yrotation Zrotation
				JOINT right_toes
				{
					OFFSET	0	-60	-88.6
					CHANNELS 3  Xrotation Yrotation Zrotation
					JOINT right_foot_ee
					{
						OFFSET	22.5	-16.5	-42.2
						CHANNELS 3  Xrotation Yrotation Zrotation
						End Site
						{
							OFFSET	1	0	0
						}
					}
				}
			}
		}
	}
}
MOTION
Frames: 8
Frame Time: 0.02
1201.22720757 741.491 -1802.58346978 -16.5316271515 21.7839118226 5.39268842918 6.90384 0.167816 -0.403476 6.90391 0.19315 -0.39198 6.90251 0.228082 -0.372739 6.90235 0.166353 -0.404081 -14.9637 0.0730342 -3.94671 -14.9253 2.48791 -3.70637 -0.0 0.0 -0.0 7.85774 0.304403 15.2971 -31.3231 3.41333 67.6687 0.532578 -14.7794 0.069073 6.38348 0.180776 -0.794946 7.88767 -23.4079 45.4715 -0.0 0.0 -0.0 9.55671 13.853 -18.7591 -27.4804 19.4813 -58.1118 1.19496 30.6222 -0.327165 -45.7957 3.58754 -4.44515 2.30863 14.3693 -9.43699 0.0 0.0 0.0 49.2439 2.06497 -1.14789 -71.8163 -3.60152 9.68823 5.18588 -5.31032 -0.769743 23.4276 -0.0 -0.0 -0.0 0.0 -0.0 29.9057 -5.92902 0.644411 -17.4008 -0.317524 -2.64119 38.9001 22.1884 5.35194 -21.864 0.0 0.0 0.0 0.0 0.0 
1176.0171893 744.435 -1815.75601566 -16.5782531979 23.4014254087 6.29534484545 6.90306 0.222314 -0.335495 6.90309 0.243212 -0.320669 6.90171 0.271438 -0.297156 6.90165 0.221101 -0.336295 -14.7063 0.803261 -3.77843 -14.6781 3.79933 -3.31491 -0.0 0.0 -0.0 7.48591 4.31074 14.4814 -33.8487 0.80082 67.4871 0.492822 -13.7194 0.0592869 -2.67975 -0.102093 0.326918 8.50368 -23.651 50.8667 -0.0 0.0 -0.0 8.63415 12.6837 -16.7858 -25.5896 13.7806 -60.0232 1.39424 34.6296 -0.434672 -46.9935 3.72372 -4.5165 0.0596373 16.6605 6.69119 0.0 0.0 0.0 52.814 3.5614 -1.42823 -69.8768 -3.35539 9.51744 -8.0766 -4.56309 1.23347 21.5358 -0.0 -0.0 -0.0 0.0 -0.0 28.0953 -6.67292 0.360137 -16.7562 -0.320154 -2.54233 37.5239 27.0215 5.47693 -10.5012 0.0 0.0 0.0 0.0 0.0 
1153.03925703 744.94 -1824.40086221 -17.4261713601 25.4890043274 7.56245579968 6.95603 0.274124 -0.140642 6.956 0.282518 -0.122914 6.95545 0.292457 -0.0969171 6.95554 0.273481 -0.141889 -16.0618 1.27099 -4.20599 -16.0359 4.8602 -3.51352 -0.0 0.0 -0.0 7.58747 6.2849 14.6091 -35.2683 -1.13854 66.3028 0.470925 -13.1315 0.0542028 -11.1343 -0.522612 1.32192 8.83229 -23.5651 54.2081 -0.0 0.0 -0.0 6.84754 13.3896 -12.8984 -18.8232 10.2501 -65.7405 1.6418 39.1184 -0.583338 -45.8068 3.58879 -4.44583 -1.77209 17.8152 19.7336 0.0 0.0 0.0 54.8346 1.79882 -2.39692 -65.0108 -2.76466 9.05341 -21.9185 -4.95422 3.39214 19.0017 -0.0 -0.0 -0.0 0.0 -0.0 26.7443 -7.17177 0.313243 -16.6551 -0.320466 -2.52681 36.9217 30.3497 5.62994 -0.928117 0.0 0.0 0.0 0.0 0.0 
1086.21073373 745.925 -1861.91676334 -15.3450202567 33.6244812825 15.4127503126 7.61296 -0.410196 -3.01715 7.618 -0.217466 -3.03711 7.62151 0.0220047 -3.0448 7.60887 -0.458919 -3.01013 -21.2437 0.218018 0.14815 -21.2438 0.348595 0.232969 -0.0 0.0 -0.0 8.0736 22.3139 14.1395 -40.6061 3.20043 58.2518 0.362393 -10.1775 0.0322711 -9.44012 -0.426624 1.12762 4.0019 -3.94151 26.1799 -0.0 0.0 -0.0 7.79096 20.2129 -14.4926 -25.8004 7.60181 -63.6986 1.95483 44.0744 -0.791344 -75.2601 7.2181 -5.31841 -5.68152 -2.91073 39.6217 0.0 0.0 0.0 46.6698 -5.05343 -9.00638 -55.2448 -1.70897 7.98112 22.4369 27.0608 -3.22495 38.502 -0.0 -0.0 -0.0 0.0 -0.0 19.2879 23.0799 -12.6885 -11.6955 -0.302157 -1.76631 38.2282 21.6793 5.2645 36.4454 -0.0 -0.0 0.0 0.0 0.0 
1066.76478116 743.98 -1874.82284669 -17.2858505985 32.9521183916 16.7537190495 7.9457 -0.249374 -3.03148 7.95081 -0.0560582 -3.0412 7.94533 0.166283 -3.03717 7.9326 -0.315243 -3.02535 -20.8888 -0.0170594 -0.146282 -20.8887 0.0391542 -0.143115 -0.0 0.0 -0.0 7.626 23.6177 13.3278 -41.0544 3.6771 58.7518 0.383136 -10.7468 0.0360378 -8.50619 -0.376185 1.01933 4.03877 -2.4764 27.0966 -0.0 0.0 -0.0 7.07793 20.1292 -12.938 -24.9233 8.07426 -62.8002 2.14816 46.7737 -0.929095 -75.8571 7.29434 -5.31631 -5.7222 -2.71479 40.1143 0.0 0.0 0.0 48.3885 -2.50431 -9.3955 -47.7847 -1.03475 7.05154 27.147 19.4766 -3.66963 34.7696 -0.0 -0.0 -0.0 0.0 -0.0 17.0505 17.9318 -11.5773 -8.613 -0.257649 -1.29548 38.2168 20.6996 5.2194 35.7498 -0.0 -0.0 0.0 0.0 0.0 
1060.55124052 743.98 -1869.9984477 -17.4621969717 33.8075289968 17.0742304917 7.9457 -0.249374 -3.03148 7.95081 -0.0560582 -3.0412 7.94533 0.166283 -3.03717 7.9326 -0.315243 -3.02535 -20.8888 -0.0170594 -0.146282 -20.8887 0.0391542 -0.143115 -0.0 0.0 -0.0 7.626 23.6177 13.3278 -41.0544 3.6771 58.7518 0.383136 -10.7468 0.0360378 -8.50619 -0.376185 1.01933 4.03877 -2.4764 27.0966 -0.0 0.0 -0.0 7.07793 20.1292 -12.938 -24.9233 8.07426 -62.8002 2.14816 46.7737 -0.929095 -75.8571 7.29434 -5.31631 -5.7222 -2.71479 40.1143 0.0 0.0 0.0 48.3885 -2.50431 -9.3955 -47.7847 -1.03475 7.05154 27.147 19.4766 -3.66963 34.7696 -0.0 -0.0 -0.0 0.0 -0.0 17.0505 17.9318 -11.5773 -8.613 -0.257649 -1.29548 38.2168 20.6996 5.2194 35.7498 -0.0 -0.0 0.0 0.0 0.0 
1045.22486333 738.142 -1882.94776088 -17.8324601967 32.2812023616 16.840195486 8.0579 -0.0524511 -3.04859 8.06306 0.141553 -3.04576 8.04703 0.358597 -3.0279 8.03426 -0.123874 -3.04653 -19.6781 0.419917 -1.21014 -19.677 1.43108 -0.952558 -0.0 0.0 -0.0 6.75078 25.0439 11.9433 -42.0066 4.2881 59.8513 0.41757 -11.6871 0.0427361 -7.7939 -0.338909 0.936204 4.28674 -1.34339 29.4784 -0.0 0.0 -0.0 6.06765 18.8337 -10.8443 -25.1844 9.61481 -62.7072 2.41922 50.1495 -1.13208 -77.0396 7.44521 -5.3098 -5.85104 -3.3545 40.7981 0.0 0.0 0.0 50.112 1.01477 -9.50273 -39.6942 -0.447425 5.95543 28.5296 12.91 -3.7537 30.9647 -0.0 -0.0 -0.0 0.0 -0.0 15.3008 13.4055 -10.0922 -8.38734 -0.253396 -1.26111 38.0693 17.1332 5.06357 36.7401 -0.0 -0.0 0.0 0.0 0.0 
1017.13549931 730.671 -1897.93763315 -19.1611180998 32.912749715 17.9866291013 8.30676 0.0317252 -3.03794 8.31186 0.224883 -3.02978 8.2913 0.427853 -3.00786 8.27868 -0.0523238 -3.03766 -17.1456 0.793448 -2.03841 -17.142 2.6608 -1.61729 -0.0 0.0 -0.0 6.11476 25.1228 11.0627 -42.1146 4.85596 60.0969 0.354072 -9.94851 0.030817 -6.46915 -0.272349 0.780414 4.6528 -0.608682 32.6701 -0.0 0.0 -0.0 6.20672 19.7604 -11.0707 -23.5951 9.06733 -60.7142 2.62784 52.4598 -1.29493 -76.5771 7.38623 -5.31272 -5.92315 -3.35498 41.4406 0.0 0.0 0.0 51.0573 5.96009 -10.0837 -32.7831 -0.0725565 4.96256 29.4562 4.89494 -3.83062 29.0445 -0.0 -0.0 -0.0 0.0 -0.0 13.4722 7.30416 -9.00846 -8.70435 -0.259332 -1.3094 38.9522 12.5256 4.99855 37.9755 -0.0 -0.0 0.0 0.0 0.0 
